<?xml version="1.0" standalone="no"?> <!DOCTYPE svg PUBLIC "-//W3C//DTD SVG 20010904//EN" "http://www.w3.org/TR/2001/REC-SVG-20010904/DTD/svg10.dtd"> <svg version="1.0" xmlns="http://www.w3.org/2000/svg" width="600.000000pt" height="600.000000pt" viewBox="0 0 600.000000 600.000000" preserveAspectRatio="xMidYMid meet"> <g transform="translate(0.000000,600.000000) scale(0.050000,-0.050000)" fill="#1181e8" stroke="none"> <path d="M5620 11288 c-38 -4 -155 -17 -260 -29 -3398 -384 -5561 -4000 -4297 -7185 1415 -3565 5975 -4519 8678 -1815 2523 2523 1895 6723 -1261 8426 -808 436 -2048 698 -2860 603z m1054 -637 c214 -31 404 -71 581 -122 l105 -30 0 -1270 0 -1269 -1360 0 -1360 0 0 1269 0 1270 105 30 c180 52 457 107 655 130 105 11 217 25 250 29 125 18 828 -7 1024 -37z m-2639 -1536 l-5 -1145 -1146 -5 -1147 -5 14 45 c95 309 668 1092 1053 1439 377 340 1088 816 1218 816 11 0 16 -465 13 -1145z m4213 1011 c798 -440 1439 -1080 1877 -1876 61 -110 116 -220 124 -245 l14 -45 -1147 5 -1146 5 -5 1146 -5 1147 45 -14 c25 -8 134 -63 243 -123z m-4208 -4126 l0 -1360 -1269 0 -1270 0 -30 105 c-218 753 -218 1757 0 2510 l30 105 1270 0 1269 0 0 -1360z m3320 0 l0 -1360 -1360 0 -1360 0 0 1360 0 1360 1360 0 1360 0 0 -1360z m3169 1255 c113 -390 160 -758 160 -1255 0 -497 -47 -865 -160 -1255 l-30 -105 -1270 0 -1269 0 0 1360 0 1360 1269 0 1270 0 30 -105z m-6494 -4371 l5 -1147 -45 14 c-309 95 -1092 668 -1439 1053 -341 379 -734 960 -805 1191 l-14 45 1147 -5 1146 -5 5 -1146z m3325 -113 l0 -1270 -105 -30 c-753 -218 -1757 -218 -2510 0 l-105 30 0 1270 0 1269 1360 0 1360 0 0 -1269z m2889 1224 c-95 -309 -668 -1092 -1053 -1439 -379 -341 -960 -734 -1191 -805 l-45 -14 0 1138 c0 626 6 1144 13 1152 8 7 526 13 1152 13 l1138 0 -14 -45z"/> </g> </svg>